<svg xmlns="http://www.w3.org/2000/svg" xmlns:xlink="http://www.w3.org/1999/xlink" width="40" zoomAndPan="magnify" viewBox="0 0 30 30.000001" height="40" preserveAspectRatio="xMidYMid meet" version="1.0"><defs><clipPath id="574e452333"><path d="M 1 4 L 28.789062 4 L 28.789062 29 L 1 29 Z M 1 4 " clip-rule="nonzero"/></clipPath><clipPath id="e4f4f66a0d"><path d="M 1 10 L 28.789062 10 L 28.789062 25 L 1 25 Z M 1 10 " clip-rule="nonzero"/></clipPath><clipPath id="ea9e08e467"><path d="M 7 0.15625 L 14 0.15625 L 14 6 L 7 6 Z M 7 0.15625 " clip-rule="nonzero"/></clipPath></defs><g clip-path="url(#574e452333)"><path fill="#f3c42f" d="M 28.746094 16.667969 C 28.679688 19.304688 28.28125 20.730469 27.050781 23.351562 C 27.46875 22.402344 26.574219 21.90625 25.125 22.3125 C 23.847656 22.671875 21.835938 23.773438 19.503906 24.949219 C 12.398438 28.519531 7.261719 29.910156 3.3125 24.226562 C 8.335938 28.335938 14.277344 25.300781 18.925781 21.476562 C 22.847656 18.25 25.707031 15.148438 28.746094 16.667969 Z M 21.960938 4.554688 C 24.179688 5.75 26.382812 8.214844 27.605469 11.054688 C 24.453125 5.007812 19.28125 9.867188 13.578125 16.871094 C 9.511719 21.867188 2.910156 21.355469 1.300781 17.847656 C 0.480469 16.066406 1.527344 12.71875 2.238281 11.070312 C 3.175781 8.894531 4.683594 6.75 6.777344 5.164062 C 4.132812 7.820312 2.605469 13.382812 5.296875 15.15625 C 9.664062 18.035156 16.660156 1.878906 21.960938 4.554688 Z M 21.960938 4.554688 " fill-opacity="1" fill-rule="evenodd"/></g><g clip-path="url(#e4f4f66a0d)"><path fill="#f3c42f" d="M 28.742188 16.667969 C 28.402344 15.101562 27.507812 13.394531 24.976562 14.292969 C 23.351562 14.867188 21.191406 16.960938 17.835938 19.65625 C 10.988281 25.152344 5.253906 26.644531 1.695312 20.644531 C 7.320312 26.910156 14.757812 18.789062 16.851562 16.542969 C 16.398438 17.058594 15.9375 17.546875 15.464844 17.996094 C 15.585938 17.875 15.707031 17.753906 15.820312 17.636719 C 20.152344 13.089844 23.746094 8.53125 27.632812 11.078125 C 28.136719 12.273438 28.789062 14.484375 28.746094 16.667969 Z M 28.742188 16.667969 " fill-opacity="1" fill-rule="evenodd"/></g><g clip-path="url(#ea9e08e467)"><path fill="#f3c42f" d="M 13.246094 0.367188 C 12.800781 0.28125 12.347656 0.496094 11.898438 0.789062 C 11.523438 1.027344 11.242188 1.3125 10.8125 1.394531 C 10.65625 1.425781 8.21875 0.160156 7.785156 0.386719 C 7.65625 0.527344 9.183594 1.601562 9.761719 2.332031 C 9.339844 2.71875 8.839844 3.175781 8.414062 3.5625 C 7.953125 3.378906 7.226562 2.929688 7.058594 3.15625 C 6.945312 3.292969 7.625 3.925781 7.972656 4.335938 C 8.257812 4.789062 8.660156 5.636719 8.820312 5.5625 C 9.082031 5.46875 8.867188 4.628906 8.828125 4.132812 C 9.320312 3.828125 9.894531 3.480469 10.382812 3.175781 C 10.902344 3.953125 11.472656 5.746094 11.644531 5.660156 C 11.984375 5.308594 11.496094 2.570312 11.566406 2.433594 C 11.769531 2.039062 12.125 1.84375 12.457031 1.550781 C 12.863281 1.199219 13.199219 0.824219 13.246094 0.367188 Z M 13.246094 0.367188 " fill-opacity="1" fill-rule="evenodd"/></g></svg>